<svg xmlns="http://www.w3.org/2000/svg" viewBox="0 0 849.72 594.61"><defs><style>.cls-1{fill:#506480;}.cls-2{fill:#444;}.cls-3{fill:#85af9a;}.cls-4{fill:#a4802f;}.cls-5{fill:#b14c59;}.cls-6,.cls-9{fill:#6d94a5;}.cls-7{fill:#cca1dd;}.cls-8{fill:#5e7775;}.cls-9{stroke:#fff;stroke-miterlimit:10;stroke-width:0.5px;}.cls-10{fill:#fff;}</style></defs><g id="Layer_2" data-name="Layer 2"><g id="MOE"><circle class="cls-1" cx="7.8" cy="586.15" r="7.8"/><path class="cls-2" d="M30.12,586.59H24.2l-1,3.56H21.68l3.8-13.84h3.36l3.8,13.84H31.12Zm-5.58-1.38h5.24l-2.1-7.58h-1Z"/><path class="cls-2" d="M35.12,590.19l-.56-.06V575.79H36v4.86a7.33,7.33,0,0,1,3-.7,3.7,3.7,0,0,1,2.08.51,2.88,2.88,0,0,1,1.11,1.63,10.53,10.53,0,0,1,.35,3,9.13,9.13,0,0,1-.44,3.18,2.75,2.75,0,0,1-1.47,1.59,7.28,7.28,0,0,1-2.91.47C36.92,590.33,36,590.28,35.12,590.19Zm4.78-1.57a2,2,0,0,0,.94-1.23,8.38,8.38,0,0,0,.26-2.34,8.71,8.71,0,0,0-.22-2.23,2,2,0,0,0-.73-1.17,2.41,2.41,0,0,0-1.41-.36,8.16,8.16,0,0,0-2.7.58v7c1,.07,1.6.1,1.92.1A3.94,3.94,0,0,0,39.9,588.62Z"/><path class="cls-2" d="M46.23,589.88a2.54,2.54,0,0,1-1-1.53,12.13,12.13,0,0,1-.28-3v-5.22h1.5v5.2a11.58,11.58,0,0,0,.16,2.26,1.75,1.75,0,0,0,.58,1.08,2.16,2.16,0,0,0,1.3.32,6.14,6.14,0,0,0,2.8-.74v-8.12h1.5v10h-1.5v-.7a7.09,7.09,0,0,1-1.52.69,5.59,5.59,0,0,1-1.6.21A3.52,3.52,0,0,1,46.23,589.88Z"/><path class="cls-2" d="M68.53,577.23A4.39,4.39,0,0,1,70,579.57a13.07,13.07,0,0,1,.38,3.32c0,2.53-.42,4.38-1.25,5.53a4.45,4.45,0,0,1-3.87,1.73H60.36V576.31H65.3A5,5,0,0,1,68.53,577.23Zm.31,5.8A7.51,7.51,0,0,0,68,579a3,3,0,0,0-2.68-1.28H61.9v11.12h3.4Q68.84,588.79,68.84,583Z"/><path class="cls-2" d="M73,575.79h1.5v4.92a9,9,0,0,1,1.63-.58,6.53,6.53,0,0,1,1.53-.18,3.64,3.64,0,0,1,2,.47,2.53,2.53,0,0,1,1,1.53,11.73,11.73,0,0,1,.29,2.92v5.28h-1.5v-5.24a11.08,11.08,0,0,0-.17-2.23,1.67,1.67,0,0,0-.64-1.07,2.5,2.5,0,0,0-1.39-.32,6.77,6.77,0,0,0-2.38.46l-.38.14v8.26H73Z"/><path class="cls-2" d="M83.82,589.57a3.19,3.19,0,0,1-.72-2.24,2.83,2.83,0,0,1,.73-2.14,3.86,3.86,0,0,1,2.33-.86l3.14-.3v-.86c0-1.27-.55-1.9-1.64-1.9a37.19,37.19,0,0,0-3.94.26l-.06-1.14a19.73,19.73,0,0,1,3.9-.44,3.4,3.4,0,0,1,2.47.77,3.36,3.36,0,0,1,.77,2.45v5.12c0,.49.43.79,1.16.88l-.06,1.18a3.24,3.24,0,0,1-2.38-.8,8.78,8.78,0,0,1-3.6.8A2.72,2.72,0,0,1,83.82,589.57Zm5-.94.46-.16v-3.3l-3,.28A1.93,1.93,0,0,0,85,586a1.82,1.82,0,0,0-.4,1.28c0,1.23.51,1.84,1.52,1.84A8.12,8.12,0,0,0,88.84,588.63Z"/><path class="cls-2" d="M94.32,590.19l-.56-.06V575.79h1.48v4.86a7.33,7.33,0,0,1,3-.7,3.7,3.7,0,0,1,2.08.51,2.88,2.88,0,0,1,1.11,1.63,10.53,10.53,0,0,1,.35,3,9.13,9.13,0,0,1-.44,3.18,2.81,2.81,0,0,1-1.47,1.59,7.28,7.28,0,0,1-2.91.47C96.12,590.33,95.22,590.28,94.32,590.19Zm4.78-1.57a2,2,0,0,0,.94-1.23,8.38,8.38,0,0,0,.26-2.34,9.19,9.19,0,0,0-.22-2.23,2,2,0,0,0-.73-1.17,2.41,2.41,0,0,0-1.41-.36,8.11,8.11,0,0,0-2.7.58v7c1,.07,1.6.1,1.92.1A4,4,0,0,0,99.1,588.62Z"/><path class="cls-2" d="M104.28,576.15h1.48v1.74h-1.48Zm0,4h1.48v10h-1.48Z"/><circle class="cls-3" cx="134.41" cy="586.15" r="7.8"/><path class="cls-2" d="M157.68,577.23a4.33,4.33,0,0,1,1.51,2.34,12.63,12.63,0,0,1,.38,3.32c0,2.53-.41,4.38-1.25,5.53a4.45,4.45,0,0,1-3.87,1.73h-4.94V576.31h4.94A5,5,0,0,1,157.68,577.23ZM158,583a7.42,7.42,0,0,0-.86-4.08,3,3,0,0,0-2.68-1.28h-3.4v11.12h3.4Q158,588.79,158,583Z"/><path class="cls-2" d="M163.3,589.88a2.54,2.54,0,0,1-1-1.53,12.64,12.64,0,0,1-.28-3v-5.22h1.5v5.2a12.44,12.44,0,0,0,.16,2.26,1.75,1.75,0,0,0,.58,1.08,2.18,2.18,0,0,0,1.3.32,6.14,6.14,0,0,0,2.8-.74v-8.12h1.5v10h-1.5v-.7a6.88,6.88,0,0,1-1.52.69,5.54,5.54,0,0,1-1.6.21A3.52,3.52,0,0,1,163.3,589.88Z"/><path class="cls-2" d="M173.33,590.19l-.56-.06V575.79h1.48v4.86a7.37,7.37,0,0,1,3-.7,3.68,3.68,0,0,1,2.08.51,2.88,2.88,0,0,1,1.11,1.63,10.18,10.18,0,0,1,.35,3,8.9,8.9,0,0,1-.44,3.18,2.75,2.75,0,0,1-1.47,1.59,7.22,7.22,0,0,1-2.91.47C175.13,590.33,174.24,590.28,173.33,590.19Zm4.78-1.57a2,2,0,0,0,.94-1.23,8,8,0,0,0,.26-2.34,8.71,8.71,0,0,0-.22-2.23,2,2,0,0,0-.73-1.17,2.41,2.41,0,0,0-1.41-.36,8.16,8.16,0,0,0-2.7.58v7c1,.07,1.6.1,1.92.1A3.94,3.94,0,0,0,178.11,588.62Z"/><path class="cls-2" d="M183.37,589.57a3.19,3.19,0,0,1-.72-2.24,2.87,2.87,0,0,1,.73-2.14,3.89,3.89,0,0,1,2.33-.86l3.14-.3v-.86c0-1.27-.54-1.9-1.64-1.9a37.19,37.19,0,0,0-3.94.26l-.06-1.14a19.81,19.81,0,0,1,3.9-.44,3.38,3.38,0,0,1,2.47.77,3.32,3.32,0,0,1,.77,2.45v5.12c0,.49.43.79,1.16.88l-.06,1.18a3.26,3.26,0,0,1-2.38-.8,8.71,8.71,0,0,1-3.6.8A2.72,2.72,0,0,1,183.37,589.57Zm5-.94.46-.16v-3.3l-3,.28a1.93,1.93,0,0,0-1.3.52,1.87,1.87,0,0,0-.4,1.28c0,1.23.51,1.84,1.52,1.84A8.08,8.08,0,0,0,188.39,588.63Z"/><path class="cls-2" d="M193.31,576.15h1.48v1.74h-1.48Zm0,4h1.48v10h-1.48Z"/><circle class="cls-4" cx="223.44" cy="586.15" r="7.8"/><path class="cls-2" d="M238.65,590l-.72-.1.16-1.28a34.45,34.45,0,0,0,4.14.36c2,0,3-.93,3-2.78a2.27,2.27,0,0,0-.27-1.2,2,2,0,0,0-.92-.72,9.31,9.31,0,0,0-1.89-.52,11.66,11.66,0,0,1-2.55-.78,2.92,2.92,0,0,1-1.33-1.18,4,4,0,0,1-.42-2c0-2.48,1.48-3.72,4.46-3.72a29.13,29.13,0,0,1,4.18.4l-.14,1.3c-1.92-.23-3.24-.34-3.94-.34-2,0-3,.75-3,2.26a2.38,2.38,0,0,0,.29,1.31,2,2,0,0,0,1,.73,15.71,15.71,0,0,0,2.22.62,10.13,10.13,0,0,1,2.29.76,2.79,2.79,0,0,1,1.19,1.11,3.83,3.83,0,0,1,.38,1.83c0,2.84-1.48,4.26-4.42,4.26A25.09,25.09,0,0,1,238.65,590Z"/><path class="cls-2" d="M249.13,575.79h1.5v4.92a8.71,8.71,0,0,1,1.63-.58,6.53,6.53,0,0,1,1.53-.18,3.69,3.69,0,0,1,2,.47,2.53,2.53,0,0,1,1,1.53,11.73,11.73,0,0,1,.29,2.92v5.28h-1.5v-5.24a11.08,11.08,0,0,0-.17-2.23,1.71,1.71,0,0,0-.64-1.07,2.53,2.53,0,0,0-1.39-.32,6.73,6.73,0,0,0-2.38.46l-.38.14v8.26h-1.5Z"/><path class="cls-2" d="M260,589.57a3.19,3.19,0,0,1-.72-2.24,2.83,2.83,0,0,1,.73-2.14,3.83,3.83,0,0,1,2.33-.86l3.14-.3v-.86c0-1.27-.55-1.9-1.64-1.9a37.19,37.19,0,0,0-3.94.26l-.06-1.14a19.73,19.73,0,0,1,3.9-.44,3.4,3.4,0,0,1,2.47.77,3.36,3.36,0,0,1,.77,2.45v5.12c0,.49.43.79,1.16.88l-.06,1.18a3.24,3.24,0,0,1-2.38-.8,8.78,8.78,0,0,1-3.6.8A2.72,2.72,0,0,1,260,589.57Zm5-.94.46-.16v-3.3l-3,.28a1.93,1.93,0,0,0-1.3.52,1.82,1.82,0,0,0-.4,1.28c0,1.23.51,1.84,1.52,1.84A8.17,8.17,0,0,0,265,588.63Z"/><path class="cls-2" d="M269.89,580.15h1.48v1.36a9.9,9.9,0,0,1,3.66-1.58v1.52a12.37,12.37,0,0,0-1.69.49,11.76,11.76,0,0,0-1.45.61l-.5.26v7.34h-1.5Z"/><path class="cls-2" d="M274.39,593.45a9.76,9.76,0,0,0,1.58-1.07,2.36,2.36,0,0,0,.68-1,4.93,4.93,0,0,0,.18-1.5v-9.74h1.48v9.76a6.23,6.23,0,0,1-.28,2,3.36,3.36,0,0,1-1,1.37,10.6,10.6,0,0,1-2.07,1.3Zm2.44-17.3h1.48v1.74h-1.48Z"/><path class="cls-2" d="M281.27,589.57a3.19,3.19,0,0,1-.72-2.24,2.83,2.83,0,0,1,.73-2.14,3.83,3.83,0,0,1,2.33-.86l3.14-.3v-.86c0-1.27-.55-1.9-1.64-1.9a37,37,0,0,0-3.94.26l-.06-1.14A19.65,19.65,0,0,1,285,580a3.42,3.42,0,0,1,2.47.77,3.36,3.36,0,0,1,.77,2.45v5.12c0,.49.42.79,1.16.88l-.06,1.18a3.23,3.23,0,0,1-2.38-.8,8.78,8.78,0,0,1-3.6.8A2.72,2.72,0,0,1,281.27,589.57Zm5-.94.46-.16v-3.3l-3,.28a1.91,1.91,0,0,0-1.3.52,1.82,1.82,0,0,0-.4,1.28c0,1.23.5,1.84,1.52,1.84A8.17,8.17,0,0,0,286.29,588.63Z"/><path class="cls-2" d="M291.21,575.79h1.5v4.92a8.71,8.71,0,0,1,1.63-.58,6.53,6.53,0,0,1,1.53-.18,3.69,3.69,0,0,1,2,.47,2.57,2.57,0,0,1,1,1.53,11.73,11.73,0,0,1,.29,2.92v5.28h-1.5v-5.24a11.08,11.08,0,0,0-.17-2.23,1.71,1.71,0,0,0-.64-1.07,2.53,2.53,0,0,0-1.39-.32,6.73,6.73,0,0,0-2.38.46l-.38.14v8.26h-1.5Z"/><circle class="cls-5" cx="327.82" cy="586.15" r="7.8"/><path class="cls-2" d="M350.14,586.59h-5.92l-1,3.56H341.7l3.8-13.84h3.36l3.8,13.84h-1.52Zm-5.58-1.38h5.24l-2.1-7.58h-1Z"/><path class="cls-2" d="M352.16,593.45a9.32,9.32,0,0,0,1.58-1.07,2.27,2.27,0,0,0,.68-1,4.93,4.93,0,0,0,.18-1.5v-9.74h1.48v9.76a6,6,0,0,1-.28,2,3.36,3.36,0,0,1-1,1.37,10.6,10.6,0,0,1-2.07,1.3Zm2.44-17.3h1.48v1.74H354.6Z"/><path class="cls-2" d="M359,580.15h1.48v.7a5.79,5.79,0,0,1,3-.9,4.07,4.07,0,0,1,1.48.25,2.21,2.21,0,0,1,1,.77,7.53,7.53,0,0,1,1.74-.73,7.45,7.45,0,0,1,2-.29,3.16,3.16,0,0,1,1.9.49,2.66,2.66,0,0,1,1,1.55,11.09,11.09,0,0,1,.29,2.88v5.28h-1.5v-5.24a11,11,0,0,0-.16-2.18,1.77,1.77,0,0,0-.59-1.1,2,2,0,0,0-1.27-.34,6.06,6.06,0,0,0-1.38.17,5,5,0,0,0-1.14.39l-.38.18a10,10,0,0,1,.26,2.92v5.2h-1.5V585a11.54,11.54,0,0,0-.16-2.25,1.85,1.85,0,0,0-.58-1.11,2,2,0,0,0-1.26-.34,5.72,5.72,0,0,0-1.34.17,4.78,4.78,0,0,0-1.1.39l-.34.18v8.12H359Z"/><path class="cls-2" d="M375.76,589.57a3.19,3.19,0,0,1-.72-2.24,2.83,2.83,0,0,1,.73-2.14,3.86,3.86,0,0,1,2.33-.86l3.14-.3v-.86c0-1.27-.55-1.9-1.64-1.9a37.19,37.19,0,0,0-3.94.26l-.06-1.14a19.81,19.81,0,0,1,3.9-.44,2.78,2.78,0,0,1,3.24,3.22v5.12c0,.49.43.79,1.16.88l-.06,1.18a3.24,3.24,0,0,1-2.38-.8,8.78,8.78,0,0,1-3.6.8A2.72,2.72,0,0,1,375.76,589.57Zm5-.94.46-.16v-3.3l-3,.28a1.93,1.93,0,0,0-1.3.52,1.82,1.82,0,0,0-.4,1.28c0,1.23.51,1.84,1.52,1.84A8.12,8.12,0,0,0,380.78,588.63Z"/><path class="cls-2" d="M385.7,580.15h1.48v.7a7.37,7.37,0,0,1,1.65-.7,6.2,6.2,0,0,1,1.57-.2,3.49,3.49,0,0,1,2,.48,2.58,2.58,0,0,1,1,1.53,11.59,11.59,0,0,1,.29,2.91v5.28h-1.48v-5.24a10.86,10.86,0,0,0-.17-2.18,1.84,1.84,0,0,0-.61-1.1,2,2,0,0,0-1.28-.34,6.14,6.14,0,0,0-1.39.17,5.11,5.11,0,0,0-1.15.39l-.38.18v8.12h-1.5Z"/><circle class="cls-6" cx="422.31" cy="586.15" r="7.8"/><path class="cls-2" d="M438.51,589.3a4.23,4.23,0,0,1-1.19-3.35v-9.64h1.54V586q0,3,3.24,3a3.83,3.83,0,0,0,2.54-.72,2.85,2.85,0,0,0,.84-2.28v-9.68H447V586a4.24,4.24,0,0,1-1.21,3.34,5.41,5.41,0,0,1-3.65,1.06A5.35,5.35,0,0,1,438.51,589.3Z"/><path class="cls-2" d="M450,580.15h1.48v.7a5.79,5.79,0,0,1,3-.9,4.1,4.1,0,0,1,1.48.25,2.26,2.26,0,0,1,1,.77,7.73,7.73,0,0,1,3.78-1,3.2,3.2,0,0,1,1.9.49,2.76,2.76,0,0,1,1,1.55,11.55,11.55,0,0,1,.29,2.88v5.28h-1.5v-5.24a11.83,11.83,0,0,0-.16-2.18,1.88,1.88,0,0,0-.59-1.1,2,2,0,0,0-1.27-.34,5.92,5.92,0,0,0-1.38.17,5,5,0,0,0-1.14.39l-.38.18a10,10,0,0,1,.26,2.92v5.2h-1.5V585a12.39,12.39,0,0,0-.16-2.25,1.9,1.9,0,0,0-.58-1.11,2,2,0,0,0-1.26-.34,5.66,5.66,0,0,0-1.34.17,4.61,4.61,0,0,0-1.1.39l-.34.18v8.12H450Z"/><path class="cls-2" d="M466.76,580.15h1.48v.7a5.79,5.79,0,0,1,3-.9,4.1,4.1,0,0,1,1.48.25,2.26,2.26,0,0,1,1,.77,7.73,7.73,0,0,1,3.78-1,3.2,3.2,0,0,1,1.9.49,2.76,2.76,0,0,1,1,1.55,11.55,11.55,0,0,1,.29,2.88v5.28h-1.5v-5.24a11.83,11.83,0,0,0-.16-2.18,1.88,1.88,0,0,0-.59-1.1,2,2,0,0,0-1.27-.34,5.92,5.92,0,0,0-1.38.17,5,5,0,0,0-1.14.39l-.38.18a10,10,0,0,1,.26,2.92v5.2H473V585a12.39,12.39,0,0,0-.16-2.25,1.9,1.9,0,0,0-.58-1.11,2,2,0,0,0-1.26-.34,5.66,5.66,0,0,0-1.34.17,4.61,4.61,0,0,0-1.1.39l-.34.18v8.12h-1.5Z"/><path class="cls-2" d="M495.36,586.59h-5.92l-1,3.56h-1.52l3.8-13.84h3.36l3.8,13.84h-1.52Zm-5.58-1.38H495l-2.1-7.58h-1Z"/><path class="cls-2" d="M499.92,575.79h1.5v14.36h-1.5Z"/><path class="cls-2" d="M515.66,590.17a6.53,6.53,0,0,1-1.68.18,6.13,6.13,0,0,1-3.25-.74,4,4,0,0,1-1.7-2.27,16.26,16.26,0,0,1,0-8.12,4.19,4.19,0,0,1,1.72-2.34,7.12,7.12,0,0,1,6.44,0,4.3,4.3,0,0,1,1.73,2.34,13.09,13.09,0,0,1,.53,4.07,12.9,12.9,0,0,1-.53,4.1,4.07,4.07,0,0,1-1.77,2.24l1.7,2.74-1.44.68Zm.69-1.74a3,3,0,0,0,1.17-1.77,16.49,16.49,0,0,0,0-6.71,3.35,3.35,0,0,0-1.19-1.87,3.9,3.9,0,0,0-2.34-.61,4,4,0,0,0-2.34.6,3.24,3.24,0,0,0-1.19,1.86,12.7,12.7,0,0,0-.35,3.36,12.84,12.84,0,0,0,.34,3.33,3,3,0,0,0,1.19,1.8,5.21,5.21,0,0,0,4.72,0Z"/><path class="cls-2" d="M523.17,589.88a2.5,2.5,0,0,1-1-1.53,12.13,12.13,0,0,1-.28-3v-5.22h1.5v5.2a11.58,11.58,0,0,0,.16,2.26,1.66,1.66,0,0,0,.58,1.08,2.16,2.16,0,0,0,1.3.32,6.13,6.13,0,0,0,2.79-.74v-8.12h1.5v10h-1.5v-.7a7,7,0,0,1-1.51.69,5.61,5.61,0,0,1-1.61.21A3.46,3.46,0,0,1,523.17,589.88Z"/><path class="cls-2" d="M531.82,580.15h1.5l2,8.7h.33l2.38-8.5h1.56l2.38,8.5h.34l2-8.7h1.5l-2.38,10h-2.5l-2.12-7.82-2.12,7.82h-2.5Z"/><path class="cls-2" d="M547.85,589.57a3.19,3.19,0,0,1-.72-2.24,2.83,2.83,0,0,1,.74-2.14,3.83,3.83,0,0,1,2.33-.86l3.13-.3v-.86c0-1.27-.54-1.9-1.63-1.9a37.36,37.36,0,0,0-4,.26l0-1.14a19.64,19.64,0,0,1,3.89-.44,3.43,3.43,0,0,1,2.48.77,3.36,3.36,0,0,1,.76,2.45v5.12c0,.49.43.79,1.17.88l-.07,1.18a3.26,3.26,0,0,1-2.38-.8,8.7,8.7,0,0,1-3.59.8A2.74,2.74,0,0,1,547.85,589.57Zm5-.94.46-.16v-3.3l-3,.28a1.91,1.91,0,0,0-1.29.52,1.82,1.82,0,0,0-.41,1.28c0,1.23.51,1.84,1.53,1.84A8.06,8.06,0,0,0,552.87,588.63Z"/><path class="cls-2" d="M557.8,576.15h1.48v1.74H557.8Zm0,4h1.48v10H557.8Z"/><path class="cls-2" d="M562.16,580.15h1.47v.7a7.43,7.43,0,0,1,1.66-.7,6.18,6.18,0,0,1,1.56-.2,3.45,3.45,0,0,1,2,.48,2.64,2.64,0,0,1,1,1.53,11.59,11.59,0,0,1,.29,2.91v5.28h-1.49v-5.24a10.17,10.17,0,0,0-.17-2.18,1.79,1.79,0,0,0-.61-1.1,2,2,0,0,0-1.27-.34,6.23,6.23,0,0,0-1.4.17,5,5,0,0,0-1.14.39l-.38.18v8.12h-1.5Z"/><circle class="cls-7" cx="598.77" cy="586.15" r="7.8"/><path class="cls-2" d="M613.87,576.31H619a4.68,4.68,0,0,1,3.32,1,4.16,4.16,0,0,1,1.1,3.17q0,3.22-2.54,4l2.66,5.62h-1.7l-2.5-5.3h-3.92v5.3h-1.54Zm5.14,7.18c1.88,0,2.82-1,2.82-2.92s-1-2.9-2.84-2.9h-3.58v5.82Z"/><path class="cls-2" d="M626,589.57a3.19,3.19,0,0,1-.72-2.24,2.83,2.83,0,0,1,.73-2.14,3.86,3.86,0,0,1,2.33-.86l3.14-.3v-.86c0-1.27-.55-1.9-1.64-1.9a37.19,37.19,0,0,0-3.94.26l-.06-1.14a19.81,19.81,0,0,1,3.9-.44,3.4,3.4,0,0,1,2.47.77,3.36,3.36,0,0,1,.77,2.45v5.12c0,.49.43.79,1.16.88l-.06,1.18a3.24,3.24,0,0,1-2.38-.8,8.78,8.78,0,0,1-3.6.8A2.72,2.72,0,0,1,626,589.57Zm5-.94.46-.16v-3.3l-3,.28a1.93,1.93,0,0,0-1.3.52,1.82,1.82,0,0,0-.4,1.28c0,1.23.51,1.84,1.52,1.84A8.12,8.12,0,0,0,631,588.63Z"/><path class="cls-2" d="M636.15,590.07l-.6-.1.08-1.3a26.16,26.16,0,0,0,3.44.34,3.28,3.28,0,0,0,1.79-.39,1.4,1.4,0,0,0,.59-1.25,1.37,1.37,0,0,0-.29-.94,1.61,1.61,0,0,0-.74-.46,9.17,9.17,0,0,0-1.27-.26l-.5-.08a8.56,8.56,0,0,1-1.88-.48,2.23,2.23,0,0,1-1-.79,2.49,2.49,0,0,1-.34-1.41,2.6,2.6,0,0,1,1-2.3,4.86,4.86,0,0,1,2.78-.68,17.08,17.08,0,0,1,2.9.26l.56.1,0,1.28a25.17,25.17,0,0,0-3.38-.32,3.31,3.31,0,0,0-1.73.36,1.23,1.23,0,0,0-.57,1.12,1.13,1.13,0,0,0,.28.83,1.69,1.69,0,0,0,.73.42,10.6,10.6,0,0,0,1.27.27l.5.1a9.51,9.51,0,0,1,1.92.51,2.1,2.1,0,0,1,1,.83,2.88,2.88,0,0,1,.33,1.5,2.85,2.85,0,0,1-1,2.37,4.65,4.65,0,0,1-2.91.75A18.61,18.61,0,0,1,636.15,590.07Z"/><path class="cls-2" d="M657.13,586.59h-5.92l-1,3.56h-1.52l3.8-13.84h3.36l3.8,13.84h-1.52Zm-5.58-1.38h5.24l-2.1-7.58h-1Z"/><path class="cls-2" d="M661.69,575.79h1.5v14.36h-1.5Z"/><path class="cls-2" d="M674.69,584l-2.3.08v6h-1.54V576.31h1.54v6.44l2.28-.08,3.54-6.36H680l-4,7,4.18,6.88h-1.82Z"/><path class="cls-2" d="M682,575.79h1.5v4.92a8.71,8.71,0,0,1,1.63-.58,6.53,6.53,0,0,1,1.53-.18,3.66,3.66,0,0,1,2,.47,2.53,2.53,0,0,1,1,1.53,11.73,11.73,0,0,1,.29,2.92v5.28h-1.5v-5.24a11.08,11.08,0,0,0-.17-2.23,1.71,1.71,0,0,0-.64-1.07,2.53,2.53,0,0,0-1.39-.32,6.73,6.73,0,0,0-2.38.46l-.38.14v8.26H682Z"/><path class="cls-2" d="M692.79,589.57a3.19,3.19,0,0,1-.72-2.24,2.83,2.83,0,0,1,.73-2.14,3.86,3.86,0,0,1,2.33-.86l3.14-.3v-.86c0-1.27-.55-1.9-1.64-1.9a37.19,37.19,0,0,0-3.94.26l-.06-1.14a19.73,19.73,0,0,1,3.9-.44,3.4,3.4,0,0,1,2.47.77,3.36,3.36,0,0,1,.77,2.45v5.12c0,.49.43.79,1.16.88l-.06,1.18a3.24,3.24,0,0,1-2.38-.8,8.78,8.78,0,0,1-3.6.8A2.72,2.72,0,0,1,692.79,589.57Zm5-.94.46-.16v-3.3l-3,.28a1.93,1.93,0,0,0-1.3.52,1.82,1.82,0,0,0-.4,1.28c0,1.23.51,1.84,1.52,1.84A8.17,8.17,0,0,0,697.81,588.63Z"/><path class="cls-2" d="M702.73,576.15h1.48v1.74h-1.48Zm0,4h1.48v10h-1.48Z"/><path class="cls-2" d="M707.09,580.15h1.48v.7a5.79,5.79,0,0,1,3-.9,4.1,4.1,0,0,1,1.48.25,2.26,2.26,0,0,1,1,.77,7.73,7.73,0,0,1,3.78-1,3.2,3.2,0,0,1,1.9.49,2.76,2.76,0,0,1,1,1.55,11.55,11.55,0,0,1,.29,2.88v5.28h-1.5v-5.24a11.83,11.83,0,0,0-.16-2.18,1.88,1.88,0,0,0-.59-1.1,2,2,0,0,0-1.27-.34,5.92,5.92,0,0,0-1.38.17,5,5,0,0,0-1.14.39l-.38.18a10,10,0,0,1,.26,2.92v5.2h-1.5V585a12.39,12.39,0,0,0-.16-2.25,1.9,1.9,0,0,0-.58-1.11,2,2,0,0,0-1.26-.34,5.66,5.66,0,0,0-1.34.17,4.61,4.61,0,0,0-1.1.39l-.34.18v8.12h-1.5Z"/><path class="cls-2" d="M723.89,589.57a3.19,3.19,0,0,1-.72-2.24,2.83,2.83,0,0,1,.73-2.14,3.83,3.83,0,0,1,2.33-.86l3.14-.3v-.86c0-1.27-.55-1.9-1.64-1.9a37,37,0,0,0-3.94.26l-.06-1.14a19.65,19.65,0,0,1,3.9-.44,3.42,3.42,0,0,1,2.47.77,3.36,3.36,0,0,1,.77,2.45v5.12c0,.49.42.79,1.16.88l-.06,1.18a3.23,3.23,0,0,1-2.38-.8,8.78,8.78,0,0,1-3.6.8A2.72,2.72,0,0,1,723.89,589.57Zm5-.94.46-.16v-3.3l-3,.28a1.91,1.91,0,0,0-1.3.52,1.82,1.82,0,0,0-.4,1.28c0,1.23.5,1.84,1.52,1.84A8.17,8.17,0,0,0,728.91,588.63Z"/><path class="cls-2" d="M733.83,575.79h1.5v4.92a8.71,8.71,0,0,1,1.63-.58,6.53,6.53,0,0,1,1.53-.18,3.69,3.69,0,0,1,2,.47,2.57,2.57,0,0,1,1,1.53,11.73,11.73,0,0,1,.29,2.92v5.28h-1.5v-5.24a11.08,11.08,0,0,0-.17-2.23,1.71,1.71,0,0,0-.64-1.07,2.53,2.53,0,0,0-1.39-.32,6.73,6.73,0,0,0-2.38.46l-.38.14v8.26h-1.5Z"/><circle class="cls-8" cx="770.44" cy="586.15" r="7.8"/><path class="cls-2" d="M787.08,577.67v5.4h5.7v1.36h-5.7v5.72h-1.54V576.31h8.28v1.36Z"/><path class="cls-2" d="M796.59,589.88a2.54,2.54,0,0,1-1-1.53,12.64,12.64,0,0,1-.28-3v-5.22h1.5v5.2a12.44,12.44,0,0,0,.16,2.26,1.75,1.75,0,0,0,.58,1.08,2.18,2.18,0,0,0,1.3.32,6.14,6.14,0,0,0,2.8-.74v-8.12h1.5v10h-1.5v-.7a6.88,6.88,0,0,1-1.52.69,5.54,5.54,0,0,1-1.6.21A3.52,3.52,0,0,1,796.59,589.88Z"/><path class="cls-2" d="M803.64,593.45a9.32,9.32,0,0,0,1.58-1.07,2.27,2.27,0,0,0,.68-1,4.93,4.93,0,0,0,.18-1.5v-9.74h1.48v9.76a6,6,0,0,1-.28,2,3.27,3.27,0,0,1-1,1.37,10.6,10.6,0,0,1-2.07,1.3Zm2.44-17.3h1.48v1.74h-1.48Z"/><path class="cls-2" d="M810.52,589.57a3.19,3.19,0,0,1-.72-2.24,2.87,2.87,0,0,1,.73-2.14,3.89,3.89,0,0,1,2.33-.86L816,584v-.86c0-1.27-.54-1.9-1.64-1.9a37.19,37.19,0,0,0-3.94.26l-.06-1.14a19.81,19.81,0,0,1,3.9-.44,3.38,3.38,0,0,1,2.47.77,3.32,3.32,0,0,1,.77,2.45v5.12c0,.49.43.79,1.16.88l-.06,1.18a3.26,3.26,0,0,1-2.38-.8,8.71,8.71,0,0,1-3.6.8A2.72,2.72,0,0,1,810.52,589.57Zm5-.94.46-.16v-3.3l-3,.28a1.93,1.93,0,0,0-1.3.52,1.87,1.87,0,0,0-.4,1.28c0,1.23.51,1.84,1.52,1.84A8.08,8.08,0,0,0,815.54,588.63Z"/><path class="cls-2" d="M820.46,576.15h1.48v1.74h-1.48Zm0,4h1.48v10h-1.48Z"/><path class="cls-2" d="M824.82,580.15h1.48v1.36a10,10,0,0,1,3.66-1.58v1.52a12.79,12.79,0,0,0-1.69.49,12.47,12.47,0,0,0-1.45.61l-.5.26v7.34h-1.5Z"/><path class="cls-2" d="M831.82,589.57a3.19,3.19,0,0,1-.72-2.24,2.87,2.87,0,0,1,.73-2.14,3.89,3.89,0,0,1,2.33-.86l3.14-.3v-.86c0-1.27-.54-1.9-1.64-1.9a37.19,37.19,0,0,0-3.94.26l-.06-1.14a19.81,19.81,0,0,1,3.9-.44,3.38,3.38,0,0,1,2.47.77,3.32,3.32,0,0,1,.77,2.45v5.12c0,.49.43.79,1.16.88l-.06,1.18a3.26,3.26,0,0,1-2.38-.8,8.71,8.71,0,0,1-3.6.8A2.72,2.72,0,0,1,831.82,589.57Zm5-.94.46-.16v-3.3l-3,.28a1.93,1.93,0,0,0-1.3.52,1.87,1.87,0,0,0-.4,1.28c0,1.23.51,1.84,1.52,1.84A8.08,8.08,0,0,0,836.84,588.63Z"/><path class="cls-2" d="M841.76,575.79h1.5v4.92a9,9,0,0,1,1.63-.58,6.53,6.53,0,0,1,1.53-.18,3.64,3.64,0,0,1,2,.47,2.49,2.49,0,0,1,1,1.53,11.27,11.27,0,0,1,.29,2.92v5.28h-1.5v-5.24a10.38,10.38,0,0,0-.17-2.23,1.63,1.63,0,0,0-.64-1.07,2.48,2.48,0,0,0-1.39-.32,6.77,6.77,0,0,0-2.38.46l-.38.14v8.26h-1.5Z"/><path class="cls-9" d="M662.07,87.24l1.47-4.63,4.11-5.51,2.52-1-3.89,6.59,3.15,3,9.47-1.87,4.74-9.55,6.52-5.71,5.15-1.78,1.89-2.46L701,67.65,705.62,70l3.89,12.6.74,7.29,1.58,3.94,5.57,5.81,1,3-1.26,3.64,7.15,7.19-3.47.88L722,119l-1.47,2.66L714.35,124l-6.1.4L705.83,123l-2.73-4.92-1-4.14-3-3.84-9.78-7.87-10.63-4.14-6.31-4.82Z"/><path class="cls-1" d="M205.08,481.2l-6.82-3.87L59.33,297.1l-2.9-7.9,1-14.13L56.64,269l3.48-4.36.42-6.75-2.47-5.81,3.51-3.39,4.51,7.61.1,12.18.72,5.36,2,1.22,2-2,2-7.68,3.49,9,3,.36L83,266.45l3.22-2,3.11,4.78.32,3.51-2,10,1.68,11.33L89,301l3.3,9,11,1.46,6.67,4.64.6-3.47,14.38.5,6.5,4,7.7-.87,5.78.78,2.41-1,8.19.19,8.47-4,9.59-.61,5.77-4.61,4.79-1,5.45-2.51,2-3.35,4.82-1.81,4.35-3.41,9.19-4.79,1.15-7.29,3.3-1.59,5.16,3.22,5.25,7.14,7.53-.77,9.6,2.35,8.75-2,3.54,1.3,12.88,1.37,6.75-1.94,1.35-2.21L285.41,297l6.18-2.36,5.61,2.63-.41-6.8,3.89-.64,7.66,4.78,5.56,6.76,8.42.68L342,298.65l6.22,4.24,6.2-.29,6.48,4,2.92,3.78,7.28-1.17,4.17,1.37,7-3.25,4.51,1.31,18.56.48,5.5-1.57,9.42-4.61,9.86-1.3L440.45,298l6.31-.89,4.79-3.12,5.15-5.83,10.18-2.57L477.83,278l9,2.66,6.84-5.63,2.91-3.6,6.15-11.13-.22-5.81,2.27-1-2.34-2.65,8.52,2.42-4.11-6.77,9.62,4.6-.37-3.55-2.71-1.32-8.08-1.07-12.73-7.84,11.09-5.56,1.23,4.63,2.81,4.16L511.4,243l2.83-.31-3.57-2.57,7.31,1.49,2.53-3,5.89-10.45-3.18-3.89,4.43-1.45,1.37-4.32,2.71-1.13-4.36-10.31,2-4.11,6.06-3.68,2.47-3.44,5,2.3,4.12-1.65L545.86,192l16.79-8.85,15.23-10.72,3.93-1.13,3.45,1,18,50.72,3.29,5.18,6,1.26,32.23-.8,8.78-2.35,10.26-5.4,16.86-6.31,3.52-2.1,12,3,7.9-.41,2.75,8.22-4.27,3.59-1.05,5.2-3.64,4.29,2,9.72v10.78l5.48,5.82-.54,7.65-7.07,12.16-1,4.7,13.68,3L719,287l4.71,2L728,301.29l5.63,9.65-1.94,2.67-9.77,2.19-17.8,6.7-3-.41-4-2.92L692,320.42l-12.48-.88-8.44,2.26-7.53,3.72L657,327.8l-6.33,1.05.59,4.67,8,5.35,2.53,3.57,1,16.41L662.1,361l-8.77,12.47-5.23,19.28-11,12.84-1.74,5L632,426.16l-3.48,9.49-15.07,23.87-4.92,14.91-.62,4.58.74,22.7-2,22.76L596.14,537l-2.44.42Zm183.46-183-8.8-3.86-6.86-.78-1.94-2,4.65-3.42,5.43-2,4.93-3.55,4-.61,3.31,1.16,4.63-3,6.22-2.56,3.58,4.78,4.36,2.7,9.53,2.86,1.55,4.67-2.32,3.72L416,297.68l-5.55-.29-4.73-1.84-.73-3.44-1.37-.45-.5,3.77L398.69,298l-5.07.82Zm67.38-16.1-10.43-4.34-1.66-4.36,2.33-3.42,3.59-1.27,7.83,8,1.52,4-1.47,4.59ZM123.33,271.61,127,273l-1.39,4.33-4.22.11Zm199.55,2.31-4.69-1.59-1.56,2.24-8.15-1.3-4.53.64,1.56-4.73,5.83,1.31,15.11-5.93,2.89,2.6,2.45.17-.71-4.72,6.06-7.86,3.08-2,1,3.57,3.64,2-1.31,6.26-2.06,1.93-9,4.18-5.8,1.74-1.59,4.35Zm133.49-2.86.34-3.68,3.18-2.67,4.56-.52,2.81,5.07,3.52,3.9-4.27,3.15-3.12.32ZM211.24,272.8l-3.33-6.63.44-3.2,4.68-5.18,3.84-2,3.77,1.14,1.66,2.69.32,6.58-6.5,6.38L213.3,275Zm259.7-9.65,4.89,1.46-2.8-4.4,2.5-.25,4.84,3.71-1.75,6.87-2.85,1.22Zm23.76-8.49-14.65-4.59v-2.76l10.36-8.95L489,242.5l1,2.59,8.28,4.9,3.13,4.88ZM167.32,235.34,167.2,233l4.54-4.55,3.72,2.43.89,3.94-2.21,3.41-2.1.76ZM82.17,216.83l2.54-.83.65,1.69-1.91,4.78Zm205.91-36.76-.24-3.53,3.22.47.56,2.93-.74,3.78Zm176.3-49-2.6-3.07,2.23-3,3.35,1.08,1.27,6.05Z"/><path class="cls-10" d="M464.1,125.34l3,1,1.16,5.51-3.79-1L462.1,128l2-2.66m117.71,46.18,3.26,1,18,50.6,3.36,5.32,6.11,1.28,32.29-.79,8.84-2.36,10.3-5.41,16.83-6.31,3.48-2.06,11.88,2.95,7.79-.39,2.63,7.87-4.21,3.55L701.31,232l-3.68,4.33,2,9.84V257l5.47,5.81-.52,7.48-7.05,12.11-1,5,14,3.06L719,287.3l4.52,1.87,4.21,12.2,5.58,9.55-1.79,2.46-9.68,2.17L704,322.25l-2.84-.4-4-3L692,320.18l-12.42-.89L671,321.56l-7.57,3.74-6.52,2.26-6.53,1.08.64,5,8.1,5.41,2.41,3.45,1,16.34-.63,2.07-8.73,12.4-5.26,19.3-10.94,12.8-1.79,5.12-3.36,15.55-3.48,9.45-15,23.83-4.94,15-.63,4.63.73,22.74-2,22.65L596,536.77l-2.31.39L205.11,481l-6.73-3.84L59.53,296.94l-2.84-7.77.94-14.08-.73-6,3.47-4.33.42-6.89-2.42-5.71,3.16-3.05,4.31,7.28.1,12.11.74,5.51,2.21,1.38,2.21-2.16,1.79-7,3.26,8.46,3.36.4,3.69-8.47,2.94-1.87,3,4.53.31,3.44-2,9.95,1.69,11.42L88.77,301l3.37,9.25,11,1.48,6.95,4.83.63-3.65,14.09.49,6.52,4,7.79-.88,5.78.78,2.42-1,8.21.2,8.52-4,9.57-.59,5.79-4.63,4.73-1,5.58-2.56,2-3.35,4.74-1.77,4.42-3.45,9.25-4.82,1.16-7.29,3.05-1.48,5,3.16,5.26,7.18,7.68-.79,9.57,2.37,8.73-2,3.47,1.28,12.94,1.38,6.95-2,1.26-2.07,10.1,7.09,6.2-2.36,5.89,2.75-.42-7,3.58-.59,7.57,4.73,5.58,6.79,8.52.69L342,298.91l6.21,4.24,6.2-.3,6.42,3.94,2.94,3.84,7.37-1.18,4.21,1.37,7-3.24,4.42,1.28,18.62.49,5.58-1.58,9.46-4.62,9.79-1.28,10.3-3.65,6.32-.88,4.84-3.15,5.15-5.81,10.1-2.56,10.94-7.58,9.05,2.66,6.94-5.71,2.94-3.65L503,260.32l-.21-5.71,2.42-1.08-2-2.27,8.31,2.36-4-6.59,9.26,4.43-.42-4.14L513.54,246l-8.1-1.09-12.31-7.58,10.42-5.22,1.15,4.34,2.84,4.23,3.79,2.66,3.58-.4-3.16-2.26,6.31,1.28,2.63-3.15,6-10.63-3.05-3.75,4.2-1.37,1.37-4.34,2.84-1.18-4.42-10.43,1.9-3.94,6-3.64,2.42-3.35,4.95,2.26,4.42-1.77-1.16-4.53,16.62-8.76L578,172.6l3.79-1.08m-293.7,5.31,2.74.4.52,2.75-.63,3.15L288.32,180l-.21-3.15M84.56,216.31l.53,1.38-1.58,3.94L82.46,217l2.1-.69m87.21,12.41,3.47,2.26.84,3.74L174,238l-1.9.69-4.52-3.45-.11-2.16,4.32-4.33m318.1,10.43-1.16,3.35,1.06,2.76,8.31,4.92,2.84,4.43-6.21-.2-14.41-4.53v-2.46l9.57-8.27m-149.79,14,.94,3.35,3.58,2-1.26,6-2,1.87-8.94,4.14-5.89,1.77-1.48,4-2-2.56L318.09,272l-1.58,2.26-8-1.28-4.21.59,1.37-4.13,5.68,1.28,15-5.91,2.84,2.56,2.84.19-.74-4.92,6-7.78,2.74-1.77m-123.18,3,3.57,1.08,1.58,2.56.32,6.4-6.42,6.3-2.63,2.26-1.89-2.06-3.27-6.5.43-3.05,4.62-5.12,3.69-1.87m258.56,4.13,4.63,3.55-1.69,6.59-2.52,1.08-4.42-7.87,5,1.48-3-4.63,2-.2m-11.15,4.23,2.73,4.93,3.37,3.74-4,2.95-2.94.3L456.63,271l.32-3.44L460,265l4.31-.5M449.69,269l7.68,7.88,1.47,3.84-1.26,3.94-1.48-2.76-10.41-4.33-1.58-4.14,2.21-3.25,3.37-1.18m-326.21,3,3.16,1.18-1.26,3.94-3.68.09,1.78-5.21M404,277.84l3.47,4.63,4.42,2.76,9.47,2.85,1.47,4.43-2.21,3.55-4.73,1.38-5.47-.3-4.52-1.77-.74-3.45-1.79-.59-.52,3.94-4.32,2.46-4.94.79-5.05-.59-8.73-3.84L373,293.3l-1.68-1.77,4.42-3.25,5.36-2,4.95-3.54,3.89-.59,3.36,1.18L398,280.3l6-2.46m59.88-153.08-.21.28-2,2.66-.24.32.26.3,2.42,2.86.1.12.15,0,3.79,1,.78.21-.16-.79-1.16-5.52-.06-.28-.28-.09-3.05-1-.34-.11ZM581.81,171l-.14,0-3.79,1.08-.08,0-.07.05L562.51,182.9l-16.6,8.75-.34.18.09.39,1.05,4.1-3.81,1.53-4.75-2.18-.37-.17-.24.34-2.36,3.26-5.91,3.59-.13.08-.06.13-1.9,3.94-.09.2.08.21,4.23,10-2.38,1-.21.09-.07.22-1.29,4.09-4,1.3-.69.23.46.56,2.83,3.48-5.8,10.29-2.41,2.89-6-1.22-2.29-.46,1.9,1.36,2.09,1.5-2.09.23-3.55-2.5-2.75-4.08L504,231.93l-.16-.59-.55.28-10.41,5.21-.81.41.77.47,12.31,7.58.09.05.1,0,8,1.07,2.52,1.22.3,3-8.45-4-1.51-.73.86,1.44,3.34,5.51-7.08-2-1.64-.47,1.12,1.28,1.55,1.76-1.8.8-.3.14v.34l.2,5.57-6.11,11.06-2.89,3.57-6.7,5.51L478,277.76l-.23-.07-.2.14-10.86,7.53-10,2.53-.15,0-.1.12-5.11,5.75-4.69,3.06-6.2.87h-.1l-10.26,3.63-9.73,1.27h-.08l-.08,0-9.42,4.6-5.46,1.55-18.48-.49-4.36-1.26-.18-.06-.17.08-6.87,3.17-4-1.32-.11,0-.12,0L364,310.09l-2.76-3.61-.06-.07-.08-.05-6.42-3.94-.13-.08h-.15l-6,.29-6.07-4.14-.17-.11-.19,0-19.61,3.34-8.25-.67-5.44-6.63,0-.06-.07,0-7.58-4.72-.16-.1-.18,0-3.58.59-.44.07,0,.45.37,6.15-5.13-2.4-.19-.09-.2.08-5.95,2.27-9.89-6.94-.43-.31-.28.46-1.16,1.9L267,293.68l-12.78-1.36-3.41-1.26-.14-.05-.15,0L241.94,293l-9.46-2.33-.09,0h-.08l-7.4.76-5.09-7,0-.08-.09-.05-5-3.15-.24-.15-.25.12-3.05,1.48-.23.12,0,.25-1.12,7-9,4.71,0,0,0,0-4.36,3.4-4.66,1.74-.16.06-.09.15-1.92,3.22L184,305.82l-4.68,1-.11,0-.1.07-5.66,4.53-9.41.58H164l-.09,0-8.41,4-8.08-.19h-.11l-.1,0-2.29.93-5.65-.77h-.13l-7.61.86L125.12,313l-.12-.07h-.13l-14.1-.5h-.43l-.08.43-.49,2.87-6.3-4.38-.1-.07h-.12L92.5,309.78l-3.22-8.88.31-6.79V294l-1.67-11.34,2-9.86,0-.07v-.07l-.32-3.45v-.12l-.06-.1-3-4.53-.27-.42-.42.27-2.94,1.87-.13.08-.06.14-3.54,8.13-2.69-.32-3.16-8.18-.56-1.46-.39,1.51L70.65,273l-1.83,1.79-1.68-1.05-.7-5.24-.1-12.08v-.14l-.07-.11L62,248.84l-.33-.54-.45.44-3.16,3-.24.24.13.31L60.28,258l-.4,6.61-3.37,4.21-.13.16,0,.21.73,6-.94,14v.11l0,.1,2.84,7.77,0,.08.05.06L198,477.41l.06.08.08.05,6.74,3.84.08.05H205l388.58,56.22h.16l2.31-.4.18,0,.12-.14,10.42-12.4.1-.12v-.16l2-22.64v-.06l-.73-22.7.62-4.54,4.91-14.87,15-23.77,0-.05v0l3.47-9.46,0,0v0l3.36-15.53,1.75-5L648.25,393l.07-.08,0-.11,5.24-19.21,8.68-12.34,0-.06,0-.08L663,359l0-.09v-.09l-1-16.34v-.14l-.09-.12-2.42-3.45,0-.07-.08-.06-7.91-5.28-.54-4.32,6-1h0l0,0,6.52-2.26h.06l7.53-3.72,8.39-2.23,12.33.88H692l.07,0,5-1.22,3.81,2.81.1.08.12,0,2.84.39.13,0,.12-.05L722,316l9.65-2.16.18,0,.11-.15,1.79-2.46.19-.27-.16-.28-5.55-9.51L724,289l-.08-.21-.21-.09-4.52-1.87-.18-.07-.18.07-8.39,3.1L697.06,287l.93-4.46,7-12,.06-.1v-.11l.52-7.48,0-.22-.15-.16-5.34-5.67V246l-2-9.6,3.53-4.15.08-.1,0-.13,1-5,4.07-3.43.26-.22L707,223l-2.63-7.87-.12-.36-.38,0-7.71.39-11.81-2.94-.2-.05-.18.11-3.43,2-16.79,6.29h-.06l-10.26,5.39-8.72,2.34-32.18.78L606.73,228l-3.22-5.1-18-50.55-.08-.23-.25-.08L582,171l-.14,0Zm-294.24,5.25,0,.62.21,3.15v.15l.1.12,2.41,3.15.67.87.22-1.08.63-3.15,0-.09,0-.1-.52-2.76-.07-.35-.35-.05-2.74-.39-.61-.09ZM84.86,215.69l-.45.15-2.11.69-.43.14.1.44,1,4.63.36,1.56.6-1.49,1.57-3.93.08-.19-.07-.18L85,216.13l-.17-.44Zm86.84,12.39-.29.28-4.31,4.34-.16.15,0,.22.1,2.17v.23l.19.14,4.52,3.45.22.16.25-.09,1.9-.69.16-.06.09-.14,2.1-3.25.11-.17,0-.21-.84-3.74,0-.2-.17-.11L172,228.3l-.34-.22ZM491,237.56l-1.41,1.21L480,247l-.17.15v3.06l.35.11,14.41,4.53.06,0h.07l6.21.2,1,0-.51-.8-2.84-4.43-.07-.1-.1-.06-8.16-4.83-.93-2.43,1.1-3.17.61-1.76ZM340.37,252.34l-.57.37-2.73,1.78-.07,0-.05.07-6,7.78-.13.17,0,.21.64,4.3-2-.14-2.71-2.44-.23-.21-.29.11-14.9,5.85L305.79,269l-.44-.1-.15.43-1.36,4.13-.26.77.8-.11,4.13-.58,7.92,1.26.31,0,.18-.25,1.37-2,4.44,1.5,1.91,2.45.55.71.31-.85,1.39-3.8,5.65-1.7h0l0,0,8.94-4.13.07,0,.06-.05,2-1.87.11-.11,0-.15,1.26-6,.07-.36-.32-.18-3.39-1.87-.89-3.14-.19-.66Zm-123.52,3.21-.18.09L213,257.51l-.09,0-.06.07-4.63,5.12-.1.12,0,.15-.42,3.05,0,.15.07.14,3.26,6.5,0,.06.05,0L213,275l.33.36.37-.32,2.63-2.26,6.44-6.33.16-.15,0-.23-.31-6.4v-.12l-.06-.11-1.58-2.56-.1-.16-.18-.06L217,255.61l-.19-.06Zm258.76,4.15-.2,0-2,.2-.81.08.44.69,2.22,3.49-3.66-1.09-1.18-.35.61,1.07,4.41,7.88.22.39.42-.18,2.52-1.08.23-.1.06-.23,1.68-6.6.08-.32-.26-.2-4.63-3.55-.15-.12Zm-11,4.22-.33,0-4.31.49-.15,0-.12.09-3.05,2.56-.15.14,0,.2-.32,3.45,0,.27.21.16,6.84,5.42.16.12.2,0,2.94-.29h.14l.11-.09,4-3,.44-.33-.37-.41-3.33-3.7-2.7-4.87-.17-.29Zm-14.76,4.49-.3.1-3.36,1.18-.16.06-.09.13-2.21,3.25-.15.22.09.24,1.58,4.14.08.2.2.08,10.25,4.26,1.39,2.6.55,1,.36-1.12,1.26-3.94.06-.17-.06-.16-1.48-3.84,0-.1-.08-.07L450,268.63l-.22-.22Zm-326.64,2.88-.17.48L121.22,277l-.23.68.72,0,3.68-.09h.36l.1-.34,1.27-3.94.14-.45-.44-.17-3.16-1.18-.48-.18Zm281,5.94-.36.15-6,2.46-.05,0,0,0-4.53,2.92-3.14-1.1-.11,0-.13,0-3.89.59-.12,0-.1.07-4.88,3.5-5.31,1.95-.06,0-.06.05L371,291.13l-.45.33.39.41,1.68,1.77.12.14.18,0,6.77.78,8.66,3.81.07,0h.07l5.05.6h.14l4.94-.79h.09l.08,0,4.31-2.47.22-.12,0-.24.45-3.34.94.31.68,3.16.05.27.25.09,4.53,1.78.07,0h.08l5.47.29H416l.08,0,4.73-1.38.19-.06.1-.16,2.21-3.54.12-.2-.07-.22-1.48-4.44-.08-.24-.25-.08-9.4-2.83-4.28-2.67-3.42-4.56-.23-.31Z"/><path class="cls-5" d="M730,120l.39-1.79,2.18-1.78,3.29,2.89-.54,1.45-3.6,2.72Zm-68.52-9.76-9.73-2.75-3.17-2,1.88-2.43,2.46,2.1,1.56-3,1.08,1.1,3.1-7.49,9.54,4.42,9.21,1.69,1.94,1.23L676,110.28l-1.75.73Z"/><path class="cls-10" d="M658.76,96.09l9.31,4.31,0,0h.07l9.06,1.66,1.75,1.09-3.21,6.91-1.6.67L661.52,110l-9.66-2.72-2.94-1.84,1.55-2,2,1.73.48.41.29-.56,1.26-2.44.57.59.52.54.3-.7,2.85-6.9m73.78,20.65,3,2.65-.46,1.21-3.3,2.5L730.23,120l.35-1.63,2-1.59m-74-21.33-3,7.39-1.05-1.09-1.58,3.06-2.42-2.07-2.2,2.85,3.47,2.17,9.78,2.76,12.83.78,1.9-.78,3.47-7.49-2.21-1.37-9.15-1.68-9.79-4.53Zm74.06,20.68-2.42,2-.42,2,1.89,3.84,3.89-3,.64-1.67-3.58-3.15Z"/><path class="cls-3" d="M606.27,228.64l-3.42-5.4-18-50.54-3.14-.94-4.54-2.43v.06l-.21-.95-.08,0,0-.17-.54-2.46,2.67-4.7-1.59,7.07,4.9,2.71,1.37-.38-2.33-4-2.5-1.63,5.36-1.63-2.15,2.15,2.42,4.53,2.82-5.53-1,4.92,3.89-2-.76-3.35,5.88-.4,11.08-11.8-3.26-3,.83-.58,3.29,2.68,15.18-17.64.74-4.65,3.11-2.59,2.65.43,3.07,5.44-2.51,4.52,3.5-1,.88-2.54-4.55-10.1,3.47-3.88,8.14,2.31,4.24-.21,6.51-1.9,3.89,4.24,4.77,2.61,3.52,3.19,10.7,6.86,4.27,5.68,4.25,17.22-.32,2.13-5.52,6.63,3.62,8.53,2.43,7.6.43,8.33,2.41,11.38-.2,4.69-1.51,4.88-3.56,2.12-16.87,6.32-10.28,5.4-8.89,2.38-32.38.8Zm139.39-22.13,4.71-10.82,10-.6h.5l-2.67,6.16-3.41,3.81-2.35,4.3-6.82.83Z"/><path class="cls-10" d="M632.93,119l8,2.27,4.31-.2,6.42-1.87,3.78,4.13,4.84,2.66,3.47,3.15,10.73,6.89,4.21,5.62,4.21,17.13-.32,2L677,167.48l3.68,8.66,2.42,7.58.42,8.27L686,203.41l-.21,4.63-1.47,4.73-3.48,2.06L664,221.14l-10.3,5.41-8.84,2.36-32.29.79-6.11-1.28-3.36-5.32-18-50.6-3.26-1-4.42-2.37-.19-.87,5.13,2.84,1.79-.49-2.52-4.33-2.11-1.38,3.9-1.18-1.58,1.57,2.73,5.12,2.21-4.33-.73,3.64,4.52-2.36-.74-3.25,5.68-.39,11.57-12.31,15.68-18.21.74-4.63,2.94-2.46,2.42.39,2.95,5.22L629,136.66l4.21-1.18.94-2.75-4.52-10,3.26-3.64M604,148.38l3.27,2.66-.74.39-2.95-2.75.42-.3m-25.56,14.28-1.25,5.57-.54-2.42,1.79-3.15m-1.25,5.57v.05h0v0m183.34,27.11L758,201.15l-3.37,3.74-2.31,4.23-6.42.79v-3.34l4.63-10.64,9.89-.59h.1M632.77,118.48l-.21.23-3.26,3.64-.22.24.14.3,4.44,9.86-.8,2.32-2.8.79,2.15-3.88.14-.24-.14-.24-2.94-5.22-.12-.21-.24,0-2.42-.39-.22,0-.18.15-3,2.46-.14.12,0,.18-.71,4.49-15,17.4-3-2.41-.29-.24-.31.22-.42.3-.51.35.45.42,2.86,2.68-10.85,11.53-5.48.38-.58,0,.13.57.65,2.88-3.26,1.7.53-2.62.73-3.58-1.66,3.25-1.78,3.48-2.11-3.94,1.32-1.32,1.42-1.41-1.92.58-3.89,1.18-.86.26.44-1.93.74-3.29L578,162.41l-1.79,3.15-.1.17,0,.18.34,1.56.17.76-.07.29.15.08.14.66.05.23h0l.23,1,.19-.83,4.2,2.25,0,0h0l3,.92,17.91,50.36,0,.06,0,0,3.36,5.32.11.18.21,0,6.1,1.28h.12l32.29-.79H645l8.83-2.37h.06l0,0,10.28-5.4L681,215.3h0l0,0,3.47-2.06.17-.1,0-.18,1.48-4.73,0-.06v-.07l.21-4.62v-.13L684,191.93l-.42-8.23v-.07l0-.06L681.17,176l-3.58-8.42,5.38-6.46.09-.11,0-.14.31-2,0-.1,0-.1-4.2-17.13,0-.1-.06-.08-4.21-5.62,0-.07-.08,0-10.69-6.87-3.44-3.12,0,0-.05,0L655.76,123,652,118.9l-.21-.23-.3.09-6.36,1.85-4.17.19-7.92-2.24-.3-.08Zm-55,49.53.71-3.17.76.5,2,1.31,2.13,3.67-1,.27L577.75,168Zm183.54,26.83h-.86l-9.92.59-.31,0-.12.28-4.63,10.64,0,.09v4l.56-.07,6.42-.79.25,0,.12-.23,2.29-4.18,3.33-3.7,0-.06,0-.07,2.53-5.81.3-.7Z"/><path class="cls-8" d="M782.31,181.76l-.95,2.65L776.2,188l-.63-1.68-2.63-1.87,1.06-3.15,2.42.2,4.73.89ZM759.58,159.6l-1.47-4.43V152l1.79-9.94-.84-6.7,1.05-1.67,6.21-1,4.31,2.36,2.52-1,6.21-4.33,7.78-3.15.74-4.33,1-1.38,4.11-2.85-1.27,10.73-1.36,6.69-.74,22-8.84-1.87-2.73.29,2,7.58,1,1.48-.74,4.43-1.68,2-1.26,4.33-1.79,1.87-2.53-5.91-10.73-10.82Zm14.94-43.12-4.1,2.86-4.21.69-1.68-3-4.84-1.28-5.05,3.15,3.79,2.46,3.47.3-.42,1.77-4.32,3.25-1,4.43-4.63,2.76-6-.89-2.84.79-9.78-1.08.42-4.24-1.69-4.62,3.9-3,.63-1.67-3.58-3.15,2.84-7.58,4,3.84,7.47,2.06,4.1-.59,4.42-2.65.21-4.43-1.79-1.48-3.58-.3-1.16-2.06,4.21-4.83,1.37-2.66-3.58-5.51-2.31.1L745,92l-7.89.29-4.42-1.67-2.41-12.7,1.89-3h3.68l3-1.18,3.78-3.75,3.37-2.06,4.21.49,6.31-1.58,2.1-1.28,5.47,2,2.53,4.34,2.31.59,8.73-2.07,3.26,1.77L786.72,74,788,75.72l3.26,10.54-.84,15.95-6.84,5.51-7.26,4.33Z"/><path class="cls-4" d="M684,213l1.55-5,.2-4.57-2.41-11.35-.43-8.31-2.41-7.52-3.73-8.78,5.63-6.76.3-1.9-4.2-17-4.17-5.53-10.66-6.83-3.51-3.17-4.79-2.63-3.74-4.07-6.27,1.83-4.37.21-8.48-2.39,2.57-2.63,3.4-.29-.5-3.7,3-2.8,1.47,1.27,5.76-5.78,3.64,2.27,9.72,2.73,12.72.77,1.75-.73,3.34-7.19-2-1.26-9.07-1.64-10.16-4.7,2.21-2.26-1.84-.86L662,86.91,672.51,93l6.33,4.84,10.57,4.1,9.85,7.92,3.12,3.92,1,4.19,2.68,4.8,2.29,1.3,6-.38,6-2.22,1.38-2.49-1.3-4.78,3.88-1,2.28,3.25,1.92-3.76,1.28-5.11,2.32-.76,3.57,1.51-3,7.87-2.4,2L730,120l1.86,3.77,1.71,4.7-.44,4.38-3.91,3.76-1.1,3.46,3.8,5-4.35,9.64-.1,6.19,3,6.24.81,5.23-6.44-.93L719,172.84l-5.19,3-5,4.21-4.6,5.38-1.51,4.69,1.15,12-.74,8.71,1.12,4.74-8.12.41Zm81.51-29.18-3.63-3.61,1.28-5.68L760.5,167l-3-4.61,2-3.07,3,1.26,10.81,10.89,2.58,6,.23,1.54.59,2.78-2.56-.21-1,3.16Zm14.08-5.34-2.35-2.72,1.31-4.51,1.68-2,.7-4.26-1-1.39-2.11-7.94,3-.33,9.11,1.92v2l3.22,12.53-8.4.8L783.39,174l-.55,5.33ZM774,124.88l2.52-.9,2.35,1.65-.82,2.87-3.46,1Zm7.7-3.54-2.84-4-4.73-.62,1.94-4.81,7.33-4.37,7.17-5.79.46,4.6-1.14,4.53,3.42,7.29-4.27,3L788,122.57Z"/><path class="cls-10" d="M662.07,87.24l10.31,6,6.31,4.82,10.63,4.14,9.78,7.87,3,3.84,1,4.14,2.73,4.92,2.42,1.38,6.1-.4,6.21-2.26L722,119l-1.26-4.63,3.47-.88,2.42,3.44,2.1-4.13,1.27-5,2.1-.69,3.26,1.38-2.84,7.58-2.42,2-.42,2,1.89,3.84,1.69,4.62-.42,4.24-3.9,3.74-1.15,3.64,3.78,5-4.31,9.55-.11,6.3,3.06,6.3.73,4.83-6.1-.89L719,172.6l-5.26,3.05-5.05,4.23L704,185.3l-1.58,4.82,1.16,12-.73,8.67,1.05,4.53-7.79.39-11.88-2.95,1.47-4.73.21-4.63L683.53,192l-.42-8.27-2.42-7.58L677,167.48l5.57-6.69.32-2-4.21-17.13-4.21-5.62-10.73-6.89L660.28,126l-4.84-2.66-3.78-4.13-6.42,1.87-4.31.2-8-2.27,2.21-2.26,3.58-.3-.53-3.84,2.74-2.56,1.47,1.28,5.79-5.81,3.47,2.17,9.78,2.76,12.83.78,1.9-.78,3.47-7.49-2.21-1.37-9.15-1.68-9.79-4.53,2.21-2.26-1.89-.89,3.26-5m128.34,15,.42,4.13-1.16,4.53,3.37,7.19-4.11,2.85-1,1.38-6-1.18-2.85-4-4.52-.59,1.79-4.43,7.26-4.33,6.84-5.51m-13.89,22.05,2.1,1.48-.73,2.56-3,.88-.53-4.13,2.21-.79m4.31,31.31,8.84,1.87v1.77l3.15,12.31-8.2.78-1.47,1.58-.53,5.12-2.94-.79-2.21-2.56,1.26-4.33,1.68-2,.74-4.43-1-1.48-2-7.58,2.73-.29m-21.25,4,2.84,1.19,10.73,10.82,2.53,5.91.21,1.48.52,2.46-2.41-.2-1.06,3.15-7.36-.88-3.47-3.45,1.26-5.61-2.63-7.58-2.94-4.53,1.78-2.76m-97.67-73-.26.4-3.26,5-.31.48.52.25,1.25.58-1.71,1.76-.5.51.64.3,9.79,4.53,0,0h.07l9.06,1.66,1.75,1.09-3.21,6.91-1.6.67L661.52,110l-9.66-2.72-3.41-2.13-.34-.21-.28.28-5.45,5.48-1.12-1-.35-.3-.32.31-2.74,2.56-.19.17,0,.26.45,3.32-3,.25h-.19l-.13.14-2.21,2.26-.58.6.81.23,8,2.27.08,0H641l4.31-.2h.06l.06,0,6.12-1.78,3.57,3.9.06.06.07,0,4.79,2.63,3.43,3.11,0,0,0,0,10.66,6.85,4.09,5.45,4.16,16.94-.28,1.73-5.49,6.59-.19.23.12.29,3.68,8.66,2.38,7.47L683,192v.08l2.41,11.36-.21,4.49-1.45,4.67-.16.5.52.13,11.88,3h.15l7.78-.39.6,0-.14-.59-1-4.45.73-8.58v-.09L703,190.18l1.52-4.63,4.53-5.31,5-4.18,5.16-3,5.72-1.34,6,.87.67.1-.1-.67-.74-4.82v-.08l0-.06-3-6.2.1-6.08,4.27-9.45.12-.27-.18-.24L728.37,140l1-3.28,3.8-3.65.13-.13,0-.18.42-4.24v-.11l0-.11-1.69-4.63v0L730.23,120l.35-1.63,2.28-1.85.11-.09,0-.13,2.84-7.58.17-.45-.45-.18-3.26-1.38-.17-.07-.18.05-2.1.69-.26.09-.07.27-1.25,5-1.7,3.35-1.94-2.77-.2-.28-.33.08-3.48.89-.49.13.14.49,1.2,4.43-1.28,2.31-6,2.18-5.88.38-2.17-1.24-2.63-4.73-.93-4.07,0-.11-.07-.09-3-3.84,0,0-.05,0-9.78-7.87-.06,0-.07,0-10.56-4.11-6.26-4.78,0,0h0l-10.31-6-.41-.24Zm128.9,14.67-.72.58-6.81,5.49-7.23,4.31-.14.09-.06.15-1.79,4.43-.24.6.64.09,4.3.56,2.72,3.86.11.16.2,0,6,1.18.31.06.19-.25,1-1.31,4-2.81.35-.24-.18-.38-3.29-7,1.11-4.35,0-.09v-.09l-.42-4.13-.09-.92ZM776.6,123.7l-.25.09-2.21.79-.38.13.06.4.52,4.14.07.58.57-.17,3-.88.26-.08.08-.27.73-2.56.1-.34-.29-.2-2.1-1.48-.21-.15Zm4.26,31.36h-.08l-2.74.3-.57.06.14.56,2,7.58,0,.09.05.07.93,1.31-.68,4.09L778.35,171l-.07.09,0,.1L777,175.51l-.08.26.18.21,2.21,2.56.1.11.15,0,2.94.79.57.15.06-.58.51-5,1.23-1.32,8-.77.58,0-.14-.57-3.14-12.24V157l-.4-.08-8.83-1.87-.08,0ZM759.39,159l-.23.35-1.78,2.76-.18.27.18.27,2.91,4.48,2.56,7.39L761.62,180l-.06.27.2.2,3.47,3.44.12.12.17,0,7.36.89.41.05.13-.39.93-2.78,2,.17.67,0-.14-.65-.52-2.47-.21-1.44v-.06l0-.06-2.53-5.91,0-.09-.07-.07-10.73-10.83-.07-.07-.09,0-2.84-1.18-.39-.16Z"/><path class="cls-7" d="M742.06,188.93l-3.95-2.7-1.18-6.89-1.64-4.5-4.55-2.58-.75-4.94L726.93,161l.11-6.41,4.27-9.47-3.77-5,1.21-3.83,4-3.86,9.9,1.09,2.79-.79,6,.88,4.46-2.66,1.05-4.41,4.31-3.25.34-1.41-3.25-.27-4.17-2.71,5.48-3.42,5,1.34,1.65,2.89,4.25-.7,1.81,5.81-5.63,3.48-.21,4.6-6.3,1-.94,1.5.83,6.61-1.79,10v3.1l1.5,4.47-1.77,2.72,2.86,4.39,2.68,7.71L762.38,180l3.32,3.29,7.34.88,2.74,2,.72,1.9-5.18,4.74-2.8,1.23-7.94,1.59h-.15l-10,.6Zm-18-75.26-7.23-7.26,1.29-3.72-.91-2.91L711.65,94,710,90l-.76-7.35-3.85-12.45-4.53-2.32-4-3.55,3.92-4.09,3.39-.69,3.05-2.26,4.52-1.08,5.32-4,8.27-9.61,5-4.06-3.7,8.1,1.7.53,3.1-10.85,6.37-5.56,2.49-3.41,1.3-4.25-5.67,4.64,4.89-7.46L744,13.69l3.51-11.35L751.15,2,758.69.26l2,.21,3.12,9.47-1.38,7.54-.74,13.92-4,6.1-.1,4.76,3.47,4.44-.33,4.24-3.66,2.94.51,9.47,1.25,2.22L756.56,67l-6.38,1.6L746,68.1l-3.3,2-3.74,3.7-3,1.24-3.63,0-1.77,2.85,2.37,12.46L737.16,92l7.74-.31,3.78-2,2.52-.11,3.73,5.76-1.44,2.79-4.12,4.74,1,1.79,3.52.29,1.94,1.61-.22,4.69L751.09,114l-4.25.63-7.58-2.1-4-3.88-3.1-1.29-1.89.61L729,112.9l-2.31,4.56Z"/><path class="cls-10" d="M758.74.51l1.79.19L763.58,10l-1.37,7.48-.73,13.88-4,6.11-.1,4.92,3.47,4.43-.32,4-3.68,3,.53,9.65,1.15,2.06-2.1,1.28-6.31,1.58-4.21-.49-3.37,2.06-3.78,3.75-3,1.18h-3.68l-1.89,3,2.42,12.7,4.41,1.67L745,92l3.79-2,2.31-.1,3.58,5.51-1.37,2.66-4.21,4.83,1.16,2.06,3.58.3,1.79,1.48-.21,4.43L751,113.82l-4.1.59-7.47-2.06-4-3.84-3.26-1.38-2.1.69-1.27,5-2.1,4.13-2.42-3.44-7.15-7.19,1.26-3.64-1-3-5.57-5.81-1.58-3.94-.74-7.29L705.62,70,701,67.65,697.2,64.3l3.69-3.84,3.36-.69,3-2.26,4.53-1.08,5.36-4,8.31-9.65,4.1-3.35-3.36,7.39,2.21.69,3.15-11,6.31-5.51,2.53-3.45L742,22.36l-5,4.14,4-6.11,3.26-6.59L747.7,2.57l3.47-.29L758.74.51m1,115.28,4.84,1.28,1.68,3,4.21-.69,1.68,5.41-5.57,3.45-.21,4.53-6.21,1-1.05,1.67.84,6.7L758.11,152v3.15l1.47,4.43-1.78,2.76,2.94,4.53,2.63,7.58-1.26,5.61,3.47,3.45,7.36.88,2.63,1.87.63,1.68-5,4.62-2.74,1.19-7.89,1.57h-.1l-9.89.59-8.31-7.18-3.89-2.66-1.16-6.8-1.69-4.62L731,172.11l-.73-4.83-3.06-6.3.11-6.3,4.31-9.55-3.78-5,1.15-3.64,3.9-3.74,9.78,1.08,2.84-.79,6,.89,4.63-2.76,1-4.43,4.32-3.25.42-1.77-3.47-.3-3.79-2.46,5.05-3.15M758.71,0l-.08,0-7.54,1.76-3.43.3-.34,0-.1.33-3.46,11.18-3.23,6.53-4,6.08L734.77,29l2.51-2.07,3.77-3.08L740,27.25l-2.45,3.34-6.27,5.47-.11.1,0,.14-.45,1.58L729.29,39l-4.1,3.34,0,0,0,0L716.85,52,711.61,56,707.19,57l-.1,0-.08.06-3,2.2-3.25.66-.16,0-.1.12L696.84,64l-.36.37.39.35L700.66,68l.05,0,0,0,4.44,2.26L709,82.71l.73,7.24V90l0,.07L711.36,94l0,.09.07.07L717,99.91l.86,2.78-1.21,3.49-.1.29.22.22,7.12,7.16,2.4,3.41.48.68.37-.74,2.11-4.13,0,0,0-.06,1.19-4.75,1.67-.55,3,1.27,3.93,3.78.09.09.12,0,7.47,2.07.1,0h.11l4.1-.59.1,0,.09,0,4.41-2.66.23-.13,0-.27.21-4.43v-.25l-.19-.16-1.79-1.48-.12-.1h-.16l-3.31-.27-.86-1.53,4-4.56,0-.05,0,0,1.36-2.66.14-.26-.16-.24-3.58-5.51-.15-.24H751l-2.31.1h-.11l-.1,0-3.69,1.92-7.67.29-4.07-1.54L730.76,78l1.65-2.65h3.5l.09,0,2.94-1.18.1,0,.07-.07,3.74-3.7,3.17-2,4,.48h.09l.09,0,6.31-1.57.07,0,.07,0,2.1-1.28.41-.25-.23-.42-1.1-2L757.36,54l3.48-2.8.17-.13,0-.22.31-4,0-.2-.12-.15-3.36-4.29.1-4.6,3.92-6,.07-.12v-.13l.73-13.85,1.36-7.45,0-.13,0-.12L761,.55l-.1-.31-.32,0L758.8,0ZM726.93,46.47l3.13-6.87.32-.7-2.27,7.94-1.18-.37Zm32.68,68.78-.19.12-5,3.15-.67.41.66.43,3.78,2.46.11.07h.12l2.9.25-.25,1-4.17,3.14-.14.11,0,.18-1,4.22-4.3,2.56-5.82-.86-.1,0-.11,0-2.74.76-9.69-1.07-.23,0-.17.17-3.89,3.74-.1.09,0,.12L727.34,140l-.08.25.16.2L731,145.2l-4.2,9.28,0,.09v.1l-.11,6.3v.12l.05.11,3,6.23.73,4.75,0,.24.22.12,4.36,2.47,1.6,4.41,1.15,6.75,0,.21.17.12,3.87,2.64,8.29,7.17.15.13h.21l9.89-.59h.17l7.89-1.57h.05l0,0,2.73-1.19.08,0,.06-.06,5-4.62.25-.23-.12-.32-.63-1.67,0-.15-.13-.08L773.23,184l-.1-.08H773l-7.19-.87-3.15-3.13,1.2-5.34,0-.14,0-.13-2.63-7.58,0-.06,0,0-2.77-4.26,1.61-2.48.13-.21-.07-.22-1.45-4.36v-3l1.78-9.9,0-.08V142l-.82-6.52.83-1.33,6-.95.41-.06,0-.41.19-4.27,5.35-3.3.33-.21-.11-.37-1.68-5.41-.13-.42-.43.07-3.87.64L765,116.83l-.1-.19-.2,0-4.84-1.28-.21-.06Z"/></g></g></svg>